<svg id="visual" viewBox="0 0 900 600" width="900" height="600" xmlns="http://www.w3.org/2000/svg" xmlns:xlink="http://www.w3.org/1999/xlink" version="1.1"><rect x="0" y="0" width="900" height="600" fill="#001220"></rect>
    <path d="M0 447L21.5 446.3C43 445.7 86 444.3 128.8 431.8C171.7 419.3 214.3 395.7 257.2 387.2C300 378.7 343 385.3 385.8 388.2C428.7 391 471.3 390 514.2 398.3C557 406.7 600 424.3 642.8 421.8C685.7 419.3 728.3 396.7 771.2 388.5C814 380.3 857 386.7 878.5 389.8L900 393L900 601L878.5 601C857 601 814 601 771.2 601C728.3 601 685.7 601 642.8 601C600 601 557 601 514.2 601C471.3 601 428.7 601 385.8 601C343 601 300 601 257.2 601C214.3 601 171.7 601 128.8 601C86 601 43 601 21.5 601L0 601Z" fill="#c62368"></path>
    <path d="M0 398L21.5 404.8C43 411.7 86 425.3 128.8 434C171.7 442.7 214.3 446.3 257.2 441.2C300 436 343 422 385.8 426.7C428.7 431.3 471.3 454.7 514.2 465.3C557 476 600 474 642.8 470.2C685.7 466.3 728.3 460.7 771.2 457.8C814 455 857 455 878.5 455L900 455L900 601L878.5 601C857 601 814 601 771.2 601C728.3 601 685.7 601 642.8 601C600 601 557 601 514.2 601C471.3 601 428.7 601 385.8 601C343 601 300 601 257.2 601C214.3 601 171.7 601 128.8 601C86 601 43 601 21.5 601L0 601Z" fill="#e95667"></path>
    <path d="M0 448L21.5 457.3C43 466.7 86 485.3 128.8 495C171.7 504.7 214.3 505.3 257.2 495.5C300 485.7 343 465.3 385.8 464C428.7 462.7 471.3 480.3 514.2 487.3C557 494.3 600 490.7 642.8 491.7C685.7 492.7 728.3 498.3 771.2 501.3C814 504.3 857 504.7 878.5 504.8L900 505L900 601L878.5 601C857 601 814 601 771.2 601C728.3 601 685.7 601 642.8 601C600 601 557 601 514.2 601C471.3 601 428.7 601 385.8 601C343 601 300 601 257.2 601C214.3 601 171.7 601 128.8 601C86 601 43 601 21.5 601L0 601Z" fill="#fa7268"></path>
    <path d="M0 506L21.5 508C43 510 86 514 128.8 518.8C171.7 523.7 214.3 529.3 257.2 533C300 536.7 343 538.3 385.8 538.8C428.7 539.3 471.3 538.7 514.2 532.8C557 527 600 516 642.8 509C685.7 502 728.3 499 771.2 502.8C814 506.7 857 517.3 878.5 522.7L900 528L900 601L878.5 601C857 601 814 601 771.2 601C728.3 601 685.7 601 642.8 601C600 601 557 601 514.2 601C471.3 601 428.7 601 385.8 601C343 601 300 601 257.2 601C214.3 601 171.7 601 128.8 601C86 601 43 601 21.5 601L0 601Z" fill="#e95667"></path>
    <path d="M0 528L21.5 534.3C43 540.7 86 553.3 128.8 560C171.7 566.7 214.3 567.3 257.2 564.8C300 562.3 343 556.7 385.8 550C428.7 543.3 471.3 535.7 514.2 539.3C557 543 600 558 642.8 559.3C685.7 560.7 728.3 548.3 771.2 548C814 547.7 857 559.3 878.5 565.2L900 571L900 601L878.5 601C857 601 814 601 771.2 601C728.3 601 685.7 601 642.8 601C600 601 557 601 514.2 601C471.3 601 428.7 601 385.8 601C343 601 300 601 257.2 601C214.3 601 171.7 601 128.8 601C86 601 43 601 21.5 601L0 601Z" fill="#c62368"></path>
</svg>